HIERARCHY
ROOT pelvis
{
	OFFSET 0.000000 0.000000 0.000000
	CHANNELS 6 Xposition Yposition Zposition Zrotation Xrotation Yrotation
	JOINT lfemur
	{
		OFFSET 11.446000 0.000000 0.000000
		CHANNELS 3 Zrotation Xrotation Yrotation
		JOINT ltibia
		{
			OFFSET 0.000000 -42.030400 0.000000
			CHANNELS 3 Zrotation Xrotation Yrotation
			JOINT lfoot
			{
				OFFSET 0.000000 -39.930200 0.000000
				CHANNELS 3 Zrotation Xrotation Yrotation
				JOINT ltoes
				{
					OFFSET 0.000000 0.000000 11.775800
					CHANNELS 3 Zrotation Xrotation Yrotation
					End Site
					{
					    OFFSET 0.000000 0.000000 5.000000
					}
				}
			}
		}
	}
	JOINT rfemur
	{
		OFFSET -11.446000 0.000000 0.000000
		CHANNELS 3 Zrotation Xrotation Yrotation
		JOINT rtibia
		{
			OFFSET 0.000000 -42.030400 0.000000
			CHANNELS 3 Zrotation Xrotation Yrotation
			JOINT rfoot
			{
				OFFSET 0.000000 -39.930200 0.000000
				CHANNELS 3 Zrotation Xrotation Yrotation
				JOINT rtoes
				{
					OFFSET 0.000000 0.000000 11.775800
					CHANNELS 3 Zrotation Xrotation Yrotation
					End Site
					{
					    OFFSET 0.000000 0.000000 5.000000
					}
				}
			}
		}
	}
	JOINT thorax
	{
		OFFSET 0.000000 11.255600 -5.000000
		CHANNELS 3 Zrotation Xrotation Yrotation
		JOINT head
		{
			OFFSET 0.000000 43.799300 0.000000
			CHANNELS 3 Zrotation Xrotation Yrotation
			End Site
			{
			    OFFSET 0.000000 5.000000 0.000000
			}
		}
		JOINT lclavicle
		{
			OFFSET 0.000000 39.863000 0.000000
			CHANNELS 3 Zrotation Xrotation Yrotation
			JOINT lhumerus
			{
				OFFSET 17.380600 4.958300 0.000000
				CHANNELS 3 Zrotation Xrotation Yrotation
				JOINT lradius
				{
					OFFSET 0.000000 -27.561300 0.000000
					CHANNELS 3 Zrotation Xrotation Yrotation
					JOINT lhand
					{
						OFFSET 0.000000 -26.933000 0.000000
						CHANNELS 3 Zrotation Xrotation Yrotation
						End Site
						{
						    OFFSET 0.000000 -5.000000 0.000000
						}
					}
				}
			}
		}
		JOINT rclavicle
		{
			OFFSET 0.000000 39.863000 0.000000
			CHANNELS 3 Zrotation Xrotation Yrotation
			JOINT rhumerus
			{
				OFFSET -17.380600 4.958300 0.000000
				CHANNELS 3 Zrotation Xrotation Yrotation
				JOINT rradius
				{
					OFFSET 0.000000 -27.561300 0.000000
					CHANNELS 3 Zrotation Xrotation Yrotation
					JOINT rhand
					{
						OFFSET 0.000000 -26.933000 0.000000
						CHANNELS 3 Zrotation Xrotation Yrotation
						End Site
						{
						    OFFSET 0.000000 -5.000000 0.000000
						}
					}
				}
			}
		}
	}
}
MOTION
Frames:	20
Frame Time:	0.0333333
198.468 86.3798 -0.127397 -2.23619 0.351606 65.4347 -1.07575 -8.18167 3.32557 0.252705 20.3684 36.3789 -7.11308 -2.68421 -0.798844 1.19307e-016 -5 -3.1927e-015 -0.555252 -15.2733 -2.91945 1.26137 20.9201 -23.8263 0.931774 2.58346 0.0678615 1.31201e-015 -5 -3.1927e-015 -7.90638 6.45074 -1.97988 10.9748 -2.90919 -14.3924 -1.59028e-015 -1.98785e-015 -0 22.0482 -27.2571 57.693 3.12172 -0.0767318 -102.87 7.257 -7.87978 -9.09538 -1.59028e-015 -1.98785e-015 -0 -10.5786 -10.9069 -25.2158 14.6554 -5.60409 52.6058 0.258479 -3.64224 9.95435 
199.178 86.3924 -0.243881 -2.2642 0.234496 61.1729 -1.20399 -6.8703 3.743 -0.085258 19.6646 40.1491 -7.75372 -3.06589 -0.874645 1.59028e-015 -5 -0 0.290887 -15.3948 -2.71904 2.67283 20.8595 -32.6892 -0.686544 2.22877 0.180709 6.75832e-016 -5 3.1927e-015 -7.93291 6.03876 -2.1056 11.6936 -1.75438 -16.5683 1.19271e-015 -3.97569e-016 -9.54166e-015 22.5488 -26.754 58.3921 3.76112 0.0171367 -103.909 7.31988 -7.64747 -9.10484 1.19271e-015 -3.97569e-016 -9.54166e-015 -10.3335 -10.2746 -24.3328 14.7588 -5.93889 51.8988 0.208573 -3.5593 9.95043 
199.893 86.2813 -0.223993 -2.29761 0.248336 56.928 -1.12786 -6.33057 4.59815 -0.915429 20.454 44.0883 -7.91415 -4.11609 -0.9703 -0 -5 -0 1.10389 -15.6324 -1.98393 3.14628 21.3799 -37.4444 -0.877655 1.62428 0.243514 -1.19307e-016 -5 3.1927e-015 -7.81119 5.45259 -2.24544 12.2818 -0.57761 -18.8936 -7.95139e-016 -1.59028e-015 9.54166e-015 22.5446 -25.9202 58.903 4.12351 -0.114742 -104.572 7.30303 -7.65008 -9.10514 -7.95139e-016 -1.59028e-015 9.54166e-015 -10.4278 -9.72388 -24.3242 14.8592 -5.69812 52.028 -0.146157 -3.43215 9.92315 
200.631 86.0276 -0.0378599 -2.06233 0.0415601 52.5575 -0.676161 -5.51214 6.09426 -2.28064 21.5174 47.0543 -8.57179 -5.50624 -1.02821 7.15661e-016 -5 -3.1927e-015 1.81861 -15.4961 -1.23491 2.59345 22.2535 -35.9307 0.423816 1.18143 0.249448 -7.95139e-016 -5 -0 -7.29929 5.14519 -2.33094 12.6026 0.39302 -21.3365 -7.95139e-016 -3.57812e-015 6.36111e-015 22.1812 -24.827 59.2523 4.08564 -0.0509827 -104.846 7.41756 -7.74937 -9.08643 -7.95139e-016 -3.57812e-015 6.36111e-015 -10.9947 -9.48196 -25.6541 14.8831 -4.7581 53.5063 -0.416456 -3.32818 9.9025 
201.378 85.6499 0.340073 -1.4817 -0.640713 47.9757 0.476662 -4.45019 12.3388 -3.05412 23.7817 44.9068 -8.55588 -7.75888 -0.906165 3.37934e-015 -5 -0 2.64874 -15.1603 -0.470093 1.46331 23.8601 -31.0051 1.84639 0.571445 0.242903 3.96488e-017 -5 9.57811e-015 -6.63657 5.42631 -2.27836 12.8453 1.17472 -23.8076 -3.97569e-016 1.98785e-015 -3.18055e-015 21.6262 -23.612 59.5339 3.83477 -0.036782 -104.95 7.31816 -7.79623 -9.09481 -3.97569e-016 1.98785e-015 -3.18055e-015 -11.6458 -9.56553 -28.453 14.5757 -3.31252 56.3456 -0.270609 -3.29076 9.9141 
202.011 85.2377 0.803499 -1.01486 -1.55614 43.6019 2.80603 -5.36192 25.1194 0.0483869 31.4116 35.4806 -9.27877 -9.65492 -1.07501 7.15661e-016 -5 -3.1927e-015 3.69524 -15.0522 0.218872 0.361692 25.9321 -26.4443 2.30917 -0.318172 0.264471 2.38614e-016 -5 -6.38541e-015 -6.2185 6.07945 -2.24979 13.4786 1.84259 -26.3612 -0 -1.98785e-016 -0 21.173 -22.733 59.5387 3.64098 -0.00285591 -105.067 7.17585 -7.77678 -9.11283 -0 -1.98785e-016 -0 -11.7955 -9.83027 -31.4894 13.9001 -2.13319 58.9563 0.0519612 -3.09904 9.93867 
202.516 84.8606 1.15618 -1.0088 -2.29149 39.7308 5.48972 -8.37644 29.1963 2.3482 41.5771 33.6854 -6.16384 -10.6886 -0.914401 -0 -5 -0 4.64219 -15.2244 0.827701 -0.244433 27.7007 -23.1474 2.22841 -1.17592 0.269788 -0 -5 -0 -5.97624 6.81856 -2.40196 14.6994 2.29525 -29.2449 2.08724e-015 6.95746e-016 3.18055e-015 20.6715 -22.4698 59.1425 3.60794 -0.0537972 -105.434 7.28024 -7.77422 -9.10014 2.08724e-015 6.95746e-016 3.18055e-015 -11.5169 -10.2307 -33.3946 13.3201 -1.67303 59.7043 0.0342348 -2.59368 9.93771 
203.117 84.5487 1.33978 -1.11361 -2.84432 35.8103 7.42974 -11.606 27.2789 2.10582 50.515 31.7897 -0.685076 -11.2669 -0.342996 3.25012e-015 -5 7.98176e-016 5.08341 -15.274 1.22941 -0.593082 28.8868 -19.3224 2.39084 -1.76697 0.229737 -0 -5 -0 -5.67859 7.69224 -2.57475 16.1349 2.43079 -32.2917 0 8.69683e-016 -0 19.9169 -22.6296 58.81 3.68167 -0.1143 -106.26 7.49346 -7.75334 -9.07615 0 8.69683e-016 -0 -11.4395 -10.786 -34.2481 13.1296 -1.53485 59.1226 -0.342567 -2.12351 9.9118 
204.066 84.3863 1.45707 -0.805321 -3.40373 31.1296 7.78484 -13.2338 23.9316 1.85041 55.3063 20.9792 2.3496 -11.6422 0.0699271 -5.56525e-016 -5 -6.38541e-015 5.00222 -15.0008 1.94155 -1.02587 29.9331 -14.7097 2.19174 -2.21154 0.119505 5.56525e-016 -5 6.38541e-015 -5.54904 8.64643 -2.53844 17.1858 2.4118 -34.7944 -1.2921e-015 7.95139e-016 -6.36111e-015 18.8818 -22.7036 58.8225 3.71752 -0.0836112 -107.279 7.45126 -7.70007 -9.08489 -1.2921e-015 7.95139e-016 -6.36111e-015 -11.8605 -11.3334 -34.6244 13.0395 -1.37296 58.6597 -0.617896 -2.13565 9.89464 
205.318 84.3547 1.57825 -0.399384 -3.86987 25.8557 6.74396 -13.7703 18.8921 1.10328 55.1835 7.01806 1.46382 -10.1731 0.10183 -2.0675e-015 -5 1.27708e-014 4.69982 -14.5822 3.28859 -1.45778 30.5482 -10.4793 2.06169 -2.37854 0.0506037 6.75832e-016 -5 3.1927e-015 -5.52369 9.24982 -2.41068 17.6609 2.44733 -36.348 -1.88845e-015 -3.97569e-016 -0 17.6564 -22.4552 58.7042 3.52825 -0.0221443 -107.907 7.33345 -7.69536 -9.09953 -1.88845e-015 -3.97569e-016 -0 -12.4433 -11.6523 -34.8206 12.8345 -1.40108 58.7587 -0.641189 -2.50514 9.89075 
206.633 84.3365 1.62642 -0.560502 -3.85784 20.4773 4.7372 -14.4902 11.8163 0.463245 52.1242 -0.6508 0.702378 -9.07154 0.257714 -2.78262e-016 -5 -3.1927e-015 4.56938 -14.8024 4.77023 -1.81136 30.7516 -6.67459 2.00131 -2.22944 -0.0074059 -0 -5 -0 -5.15073 9.23194 -2.3819 17.7748 2.51528 -37.0663 3.97569e-016 -1.59028e-015 -0 16.2593 -22.1256 58.1425 3.07197 -0.0682121 -107.982 7.49854 -7.75262 -9.07577 3.97569e-016 -1.59028e-015 -0 -12.9136 -11.8405 -34.7136 12.7711 -1.88039 58.6817 -0.685073 -2.82394 9.88254 
207.958 84.3235 1.58189 -1.11066 -3.31724 14.7292 2.59159 -15.5802 3.06924 0.365234 48.6908 -1.18598 0.47436 -9.38688 0.304711 -2.78262e-016 -5 -3.1927e-015 4.59739 -15.6501 6.32419 -2.09392 30.5437 -2.3897 1.8845 -1.71727 -0.137369 1.19307e-016 -5 -3.1927e-015 -4.5721 8.85835 -2.27917 17.6698 2.5842 -36.8874 -9.93923e-016 7.95139e-016 1.59028e-015 14.7525 -21.9114 57.652 2.4756 -0.115207 -107.808 7.66791 -7.83478 -9.04891 -9.93923e-016 7.95139e-016 1.59028e-015 -13.4112 -12.1631 -33.9463 13.032 -2.67675 57.9377 -0.753697 -3.04539 9.87948 
209.442 84.3599 1.6193 -1.36043 -2.85027 8.09443 0.565069 -15.9647 -6.37119 0.465691 45.1194 -0.326304 -0.345203 -9.29647 0.0439947 6.46095e-017 -5 -3.99088e-016 4.55289 -16.3428 8.54836 -2.3555 30.1056 2.46179 1.84461 -0.996286 -0.321778 -6.36183e-016 -5 6.38541e-015 -4.25981 8.61105 -1.94122 17.3625 2.80002 -35.6193 -6.95746e-016 -1.59028e-015 -0 13.3094 -21.6043 57.5713 1.83939 -0.103231 -107.438 7.41223 -8.02656 -9.06567 -6.95746e-016 -1.59028e-015 -0 -14.0083 -12.6054 -32.3259 13.3748 -3.56 56.9378 -0.624192 -3.37185 9.88686 
211.142 84.4339 1.87778 -1.16791 -2.95089 0.788399 -1.63944 -14.5594 -16.4284 0.401712 40.6381 -1.82558 1.26783 -9.54319 0.206305 2.78262e-016 -5 3.1927e-015 4.31816 -16.4703 11.411 -2.70436 29.6682 7.24694 2.10775 -0.325296 -0.494684 -0 -5 -0 -4.30065 8.76515 -1.55974 16.8856 3.23105 -33.6449 -9.81499e-016 0 -1.98785e-016 12.1466 -21.1547 57.5186 1.15441 0.0173941 -106.695 7.24897 -8.26746 -9.0747 -9.81499e-016 0 -1.98785e-016 -14.5834 -13.0471 -30.1755 13.6002 -4.43964 56.0697 -0.523391 -3.77479 9.89306 
212.922 84.3679 2.23566 -1.13811 -3.31713 -6.69388 -3.2928 -13.033 -25.7837 0.121511 37.4456 -6.25981 1.23782 -9.28772 0.200925 -5.56525e-016 -5 -6.38541e-015 4.30983 -16.883 14.3709 -3.16828 29.9479 11.8975 3.11435 -0.0349165 -0.629404 -6.75832e-016 -5 -3.1927e-015 -4.20557 9.201 -1.31631 16.3883 3.72457 -31.7217 2.20695e-032 7.95139e-016 -1.59028e-015 11.296 -20.8236 57.2502 0.497897 -0.0891334 -105.786 7.54155 -8.33609 -9.02949 2.20695e-032 7.95139e-016 -1.59028e-015 -14.9332 -13.6091 -27.7274 13.7995 -5.35602 54.6859 -0.84084 -4.01136 9.8663 
214.636 84.1709 2.47285 -1.4534 -3.34441 -14.432 -3.6831 -12.3669 -29.2427 -0.12676 36.1721 -11.0483 1.00263 -9.34449 0.182651 1.03375e-015 -5 -6.38541e-015 4.90371 -18.6456 17.8171 -3.43136 31.6987 16.878 6.44852 -0.640014 -0.592865 2.78262e-016 -5 3.1927e-015 -4.15141 9.58756 -1.07079 15.9355 4.12069 -30.05 -2.64834e-031 -2.38542e-015 -6.36111e-015 11.0246 -20.8362 57.178 0.0228022 -0.0730779 -105.073 7.80623 -8.19486 -9.00775 -2.64834e-031 -2.38542e-015 -6.36111e-015 -14.92 -14.4701 -24.8406 14.0353 -6.35715 52.1343 -1.35119 -4.00289 9.82489 
216.257 84.0574 2.53886 -1.54479 -2.97505 -22.544 -2.92687 -11.9 -24.6317 -0.254096 35.007 -12.935 1.69813 -9.63244 0.271346 2.94194e-015 -5 6.38541e-015 5.66029 -20.6475 22.2909 -2.93893 32.5888 21.295 9.10687 -1.2311 -0.59342 -1.0734e-015 -5 -3.1927e-015 -5.08068 9.65074 -0.785271 15.3595 4.319 -28.2592 3.97569e-016 1.59028e-015 -0 11.2753 -20.7474 57.3128 -0.299917 -0.0761658 -104.417 7.40618 -8.20753 -9.05388 3.97569e-016 1.59028e-015 -0 -14.6104 -15.5451 -21.3692 14.2386 -7.51536 48.9309 -1.56469 -3.93983 9.80852 
217.863 84.0007 2.55299 -1.15213 -2.54612 -30.3955 -2.58595 -11.6637 -16.5867 0.133476 34.2538 -11.6451 2.00863 -9.74638 0.255495 5.56525e-016 -5 6.38541e-015 6.1837 -22.4184 26.6013 -2.46868 32.1752 23.8878 10.7181 -1.18484 -0.578831 2.1468e-015 -5 6.38541e-015 -6.9649 9.58486 -0.809664 14.7109 3.96239 -26.2492 -7.95139e-016 3.18055e-015 -6.36111e-015 12.1836 -20.4754 57.2202 -0.57335 -0.0888165 -103.619 7.2091 -8.27672 -9.07159 -7.95139e-016 3.18055e-015 -6.36111e-015 -14.1042 -16.749 -17.3424 14.3612 -8.98459 45.7694 -1.58287 -4.05766 9.80484 
219.515 83.9762 2.55621 -0.656187 -2.16115 -37.0479 -3.14567 -11.9775 -10.12 1.41789 34.041 -10.2072 2.04145 -9.69338 0.199808 1.0734e-015 -5 3.1927e-015 6.2672 -23.4426 28.3815 -2.73346 30.1896 22.7246 10.3794 -0.390978 -0.582264 1.53062e-015 -5 1.59635e-015 -8.81616 10.0607 -1.30323 14.4281 2.667 -24.5824 -3.53113e-031 1.59028e-015 1.27222e-014 13.9006 -20.7439 56.9668 -0.516752 -0.0593264 -103.433 7.90332 -7.94561 -9.0146 -3.53113e-031 1.59028e-015 1.27222e-014 -13.357 -17.9701 -13.3389 14.2784 -10.8426 42.4869 -1.73757 -4.41528 9.78704 
221.14 84.0482 2.49728 -0.405205 -1.74775 -42.3238 -3.77059 -12.4539 -7.56731 2.00404 33.644 -8.1563 1.87929 -9.30092 0.170666 -5.16876e-016 -5 3.1927e-015 6.05131 -23.7539 26.9537 -3.0933 27.7412 16.7736 8.54123 0.989532 -0.573605 3.03133e-016 -5 1.19726e-015 -10.0445 11.1316 -1.87498 14.6215 0.814562 -23.8138 -3.18055e-015 -3.18055e-015 3.18055e-015 15.9836 -21.9553 57.1616 0.386843 -0.00277462 -104.969 8.5079 -7.5124 -8.97945 -3.18055e-015 -3.18055e-015 3.18055e-015 -12.3465 -18.6126 -10.7631 13.8231 -12.7951 39.1928 -1.79027 -4.74154 9.77812 
